<svg width="1387" height="1188" viewBox="0 0 1387 1188" fill="none" xmlns="http://www.w3.org/2000/svg">
<g clip-path="url(#clip0_1328_14067)">
<path d="M1501.65 728.165L1248.36 669.434C1191.08 754.419 1040.21 798.219 961.704 780.123L896.453 777.441C867.653 776.26 839.279 784.746 815.856 801.544L697.473 886.467C690.78 891.269 685.594 897.875 682.51 905.514L678.221 916.157C674.791 924.667 668.376 931.644 660.187 935.779L636.863 947.546C620.609 955.747 606.957 968.306 597.427 983.818L579.912 1012.33C576.402 1018.05 571.853 1023.06 566.507 1027.12C504.816 1065.18 446.969 1103.03 418.57 1139.19C408.243 1125.05 408.991 1126.94 399.603 1111.89C401.062 1104.25 384.362 1076.13 375.655 1073.15C325.792 990.326 296.22 906.398 269.082 801.334C263.637 780.259 263.396 758.177 268.415 736.997L286.331 661.357C291.183 640.882 291.757 619.622 288.018 598.912L275.584 530.014C273.841 520.361 270.09 511.17 264.453 503.142C253.335 487.29 243.922 470.838 236.141 453.811C233.039 447.013 224.386 444.665 218.41 449.164C204.468 459.658 204.993 484.101 215.295 517.975L162.17 443.954C162.17 443.954 110.762 334.866 83.7918 346.417C57.4392 358.184 148.332 504.415 142.14 509.267L133.432 514.489C133.432 514.489 49.1206 340.113 27.2054 352.511C5.29018 364.908 53.3293 462.241 53.3293 462.241C19.8694 465.882 21.9583 502.234 46.3642 544.976C2.26803 526.467 -11.5387 550.588 18.4974 605.067C24.999 664.775 43.6387 711.837 77.7166 742.807C145.984 852.599 159.772 1054.13 221.494 1194.65C215.499 1206.87 218.336 1224.63 223.033 1234.01C227.075 1271.26 238.558 1299.13 256.308 1319.14L264.416 1371.19C267.265 1389.47 278.921 1405.16 295.589 1413.17L324.908 1427.26C340.835 1434.91 359.431 1434.62 375.111 1426.49L442.581 1391.48C455.312 1384.87 469.594 1381.86 483.908 1382.75L517.627 1384.86C525.458 1385.35 533.294 1383.92 540.451 1380.7L690.977 1312.81C715.525 1436.69 712.33 1589.45 693.709 1758.27H1501.64V728.165H1501.65Z" fill="white" stroke="#222222" stroke-width="4.94421" stroke-linecap="round" stroke-linejoin="round"/>
<path d="M726.069 208.772C713.344 246.218 717.077 342.791 720.902 385.484C723.183 404.476 732.113 416.651 741.569 427.856C769.399 630.34 822.073 752.214 944.677 720.516C967.173 732.413 970.844 758.648 961.704 780.118C1052.03 797.169 1193.62 749.773 1248.36 669.43C1195.98 635.271 1158.68 567.567 1156.12 503.397L1078.07 137.279L841.084 120.252L726.063 208.772H726.069Z" stroke="#222222" stroke-width="4.94421" stroke-linecap="round" stroke-linejoin="round"/>
<path d="M1445.53 1049.28C1442.69 1050.23 1229.57 973.507 1180.32 970.67C1131.07 967.833 1065.41 966.696 1060.41 995.861C1054.25 1033.21 1179.38 1032.24 1179.38 1032.24C1222.99 1053.92 1263.85 1071.99 1299.67 1083.39" stroke="#222222" stroke-width="4.94421" stroke-linecap="round" stroke-linejoin="round"/>
<path d="M1283.11 1097.12C1280.88 1096.38 1171.8 1058.54 1143.59 1058.54C1115.39 1058.54 1079.03 1054.78 1074.58 1083.37C1069.38 1123.09 1247.18 1143.77 1240.81 1160.94C1238.66 1171.79 1141.37 1124.58 1129.5 1163.91C1117.63 1203.24 1263.82 1237.38 1263.82 1237.38" stroke="#222222" stroke-width="4.94421" stroke-linecap="round" stroke-linejoin="round"/>
<path d="M1263.99 1070.56L1269.17 1092.4" stroke="#222222" stroke-width="4.94421" stroke-linecap="round" stroke-linejoin="round"/>
<path d="M1270.53 992.581C1244.68 963.941 1244.73 915.124 1276.25 899.778C1285.93 895.069 1297.48 900.866 1299.68 911.403C1313.33 977.013 1442.97 987.062 1467.84 1056.6" stroke="#222222" stroke-width="4.94421" stroke-linecap="round" stroke-linejoin="round"/>
<path d="M1288.6 910.123C1283.34 925.858 1288.11 942.267 1300.3 947.514C1304.36 949.263 1307.51 948.713 1309.87 947.334" stroke="#222222" stroke-width="4.94421" stroke-linecap="round" stroke-linejoin="round"/>
<path d="M1083.71 982.414C1079.51 987.018 1077.71 993.594 1077.2 999.533C1076.8 1004.24 1072.72 1007.77 1068.01 1007.57L1063.18 1007.36" stroke="#222222" stroke-width="4.94421" stroke-linecap="round" stroke-linejoin="round"/>
<path d="M918.837 807.975C987.846 861.799 1197.4 827.295 1273.41 711.365" stroke="#222222" stroke-width="4.94421" stroke-linecap="round" stroke-linejoin="round"/>
<path d="M221.494 1194.64C281.313 1202.35 375.667 1162.21 375.667 1073.16" stroke="#222222" stroke-width="4.94421" stroke-linecap="round" stroke-linejoin="round"/>
<path d="M247.272 1231.93C315.329 1231.93 399.615 1178.34 399.615 1111.89" stroke="#222222" stroke-width="4.94421" stroke-linecap="round" stroke-linejoin="round"/>
<path d="M128.574 518.518L149.63 504.18" stroke="#222222" stroke-width="4.94421" stroke-linecap="round" stroke-linejoin="round"/>
<path d="M215.314 517.971L228.83 576.801C184.419 578.803 147.207 620.81 162.411 670.827" stroke="#222222" stroke-width="4.94421" stroke-linecap="round" stroke-linejoin="round"/>
<path d="M53.3356 462.242C79.4348 461.197 95.4726 493.297 84.515 504.181C73.5574 515.064 51.4321 505.806 38.262 493.576" stroke="#222222" stroke-width="4.94421" stroke-linecap="round" stroke-linejoin="round"/>
<path d="M76.7587 508.43L98.1115 538.12" stroke="#222222" stroke-width="4.94421" stroke-linecap="round" stroke-linejoin="round"/>
<path d="M46.3641 544.969L80.5904 563.201C85.6211 565.877 87.8769 571.952 85.6768 577.211C77.8958 595.764 45.8574 591.389 19.6531 575.851" stroke="#222222" stroke-width="4.94421" stroke-linecap="round" stroke-linejoin="round"/>
<path d="M80.5968 563.208C73.0755 564.463 66.3513 568.628 60.0722 574.432C52.7733 569.908 51.2035 563.715 53.9229 559.271" stroke="#222222" stroke-width="4.94421" stroke-linecap="round" stroke-linejoin="round"/>
<path d="M86.5235 486.374C78.3594 484.637 69.0396 490.279 63.8914 496.41C59.5591 489 60.585 480.014 68.4092 475.719" stroke="#222222" stroke-width="4.94421" stroke-linecap="round" stroke-linejoin="round"/>
<path d="M664.39 982.414C640.991 1050.66 633.588 1125.81 636.412 1205.38" stroke="#222222" stroke-width="4.94421" stroke-linecap="round" stroke-linejoin="round"/>
<path d="M804.49 656.831C836.714 712.311 881.379 736.89 944.683 720.519C1023.59 699.988 1141.57 500.236 1111.18 481.565C1132.3 455.695 1103.63 257.191 1103.63 257.191C1075.75 220.746 1030.35 197.131 975.213 180.648L1009.97 248.495C1015.43 259.144 1024.38 267.586 1035.34 272.407L1041.92 275.299C1050.03 278.865 1055.49 286.646 1056.09 295.484L1067.2 459.73C1068.36 476.918 1059.64 493.271 1044.72 501.874L1023.12 514.327C1004.98 524.784 991.678 541.946 986.078 562.112L967.952 627.382C952.977 669.142 908.831 674.247 884.184 662.943L874.784 667.01C874.784 667.01 858.419 716.73 804.496 656.843L804.49 656.831Z" fill="#222222" stroke="#222222" stroke-width="4.94421" stroke-linecap="round" stroke-linejoin="round"/>
<path d="M771.345 365.928C801.202 419.993 757.601 477.624 782.161 494.18C806.721 510.737 849.767 494.18 854.915 472.111" stroke="#222222" stroke-width="4.94421" stroke-linecap="round" stroke-linejoin="round"/>
<path d="M832.975 357.628C864.445 339.384 910.537 336.726 937.131 345.558" stroke="#222222" stroke-width="4.94421" stroke-linecap="round" stroke-linejoin="round"/>
<path d="M778.014 381.482C761.834 385.432 750.802 393.868 745.66 404.535" stroke="#222222" stroke-width="4.94421" stroke-linecap="round" stroke-linejoin="round"/>
<path d="M855.96 349.339C855.286 352.546 854.915 355.995 854.915 359.592C854.915 376.538 863.055 390.277 873.104 390.277C883.153 390.277 891.292 376.538 891.292 359.592C891.292 352.861 890.007 346.638 887.825 341.576C877.004 342.998 866.12 345.55 855.96 349.332V349.339Z" fill="#222222"/>
<path d="M772.285 385.197C764.547 387.286 758.046 390.432 752.873 394.369C752.348 396.779 752.057 399.387 752.057 402.119C752.057 414.133 757.619 423.873 764.479 423.873C771.34 423.873 776.902 414.133 776.902 402.119C776.902 395.283 775.097 389.184 772.285 385.197Z" fill="#222222"/>
<path d="M815.398 556.299C854.47 555.038 918.918 524.953 934.164 500.361" stroke="#222222" stroke-width="4.94421" stroke-linecap="round" stroke-linejoin="round"/>
<path d="M839.001 584.144C877.955 579.725 925.71 541.142 925.71 510.314" stroke="#222222" stroke-width="4.94421" stroke-linecap="round" stroke-linejoin="round"/>
<path d="M827.87 555.08L845.595 583.095" stroke="#222222" stroke-width="4.94421" stroke-linecap="round" stroke-linejoin="round"/>
<path d="M799.917 316.266L810.967 323.911C820.998 330.845 833.877 332.261 845.119 327.545C873.629 315.586 918.547 312.966 974.484 322.44C928.676 294.376 854.909 288.208 799.911 316.266H799.917Z" fill="#222222" stroke="#222222" stroke-width="4.94421" stroke-linecap="round" stroke-linejoin="round"/>
<path d="M712.256 920.092C712.256 1192.97 527.578 1599.55 527.578 1758.26" stroke="#222222" stroke-width="4.94421" stroke-linecap="round" stroke-linejoin="round"/>
<path d="M759.133 337.49L760.104 350.5C760.703 357.916 757.378 365.104 751.34 369.448L721.737 390.758L719.722 372.73L759.133 337.49Z" fill="#222222" stroke="#222222" stroke-width="4.94421" stroke-linecap="round" stroke-linejoin="round"/>
<path d="M832.975 503.364C873.641 487.913 915.754 482.029 941.952 479.78C946.123 479.421 947.613 485.15 943.8 486.881C911.143 501.701 886.898 525.952 850.793 533.721C821.053 540.247 807.321 548.022 802.296 562.799C800.801 567.199 794.528 567.039 793.391 562.533C789.145 545.748 790.758 519.401 832.981 503.357L832.975 503.364Z" fill="#222222" stroke="#222222" stroke-width="4.94421" stroke-linecap="round" stroke-linejoin="round"/>
<path d="M1222.19 466.326C1222.19 842.104 845.595 1092.4 845.595 1758.27" stroke="#222222" stroke-width="4.94421" stroke-linecap="round" stroke-linejoin="round"/>
<path d="M841.009 585.566C813.353 451.306 709.5 359.245 609.046 379.936C606.981 380.363 568.268 388.335 568.268 388.335C581.673 385.573 582.063 386.178 589.022 385.647C682.646 380.511 774.479 468.944 800.232 593.965C824.984 714.103 780.331 827.319 698.684 864.629L699.599 922.699L740.376 914.3L739.461 856.23C821.103 818.92 865.755 705.704 841.009 585.566Z" fill="white" stroke="#222222" stroke-width="4.94421" stroke-linecap="round" stroke-linejoin="round"/>
<path d="M800.232 593.964C772.575 459.704 668.722 367.643 568.268 388.335C467.814 409.026 408.805 534.64 436.462 668.9C461.214 789.038 546.971 875.388 636.715 877.391L658.828 931.091L699.605 922.692L698.69 864.622C780.331 827.312 824.984 714.096 800.238 593.958L800.232 593.964Z" fill="white" stroke="#222222" stroke-width="4.94421" stroke-linecap="round" stroke-linejoin="round"/>
<path d="M661.645 841.63C746.228 824.206 795.41 715.976 771.497 599.891C747.584 483.806 659.63 403.826 575.048 421.25C490.465 438.674 441.282 546.904 465.195 662.989C489.109 779.073 577.062 859.054 661.645 841.63Z" fill="white" stroke="#222222" stroke-width="4.94421" stroke-linecap="round" stroke-linejoin="round"/>
<path d="M543.961 507.014H377.583C368.637 507.014 361.384 514.266 361.384 523.212V531.555C361.384 540.502 368.637 547.754 377.583 547.754H543.961C552.908 547.754 560.16 540.502 560.16 531.555V523.212C560.16 514.266 552.908 507.014 543.961 507.014Z" fill="white" stroke="#222222" stroke-width="4.94421" stroke-linecap="round" stroke-linejoin="round"/>
<path d="M543.961 614.188H377.583C368.637 614.188 361.384 621.44 361.384 630.386V638.729C361.384 647.675 368.637 654.928 377.583 654.928H543.961C552.908 654.928 560.16 647.675 560.16 638.729V630.386C560.16 621.44 552.908 614.188 543.961 614.188Z" fill="white" stroke="#222222" stroke-width="4.94421" stroke-linecap="round" stroke-linejoin="round"/>
<path d="M543.961 721.361H377.583C368.637 721.361 361.384 728.614 361.384 737.56V745.903C361.384 754.849 368.637 762.102 377.583 762.102H543.961C552.908 762.102 560.16 754.849 560.16 745.903V737.56C560.16 728.614 552.908 721.361 543.961 721.361Z" fill="white" stroke="#222222" stroke-width="4.94421" stroke-linecap="round" stroke-linejoin="round"/>
<path d="M543.962 547.758H377.589V614.189H543.962V547.758Z" fill="white" stroke="#222222" stroke-width="4.94421" stroke-linecap="round" stroke-linejoin="round"/>
<path d="M543.962 654.928H377.589V721.359H543.962V654.928Z" fill="white" stroke="#222222" stroke-width="4.94421" stroke-linecap="round" stroke-linejoin="round"/>
<path d="M492.444 930.221H428.444V1040.44H492.444V930.221Z" fill="white" stroke="#222222" stroke-width="4.94421" stroke-linecap="round" stroke-linejoin="round"/>
<path d="M471.111 1040.45H449.778V1758.67H471.111V1040.45Z" fill="white" stroke="#222222" stroke-width="4.94421" stroke-linecap="round" stroke-linejoin="round"/>
<path d="M492.721 877.801H428.83C419.794 877.801 411.154 874.074 404.949 867.498L386.532 847.975C380.784 841.881 377.583 833.822 377.583 825.448V762.094H543.955V825.448C543.955 833.822 540.754 841.881 535.006 847.975L516.589 867.498C510.39 874.074 501.75 877.801 492.709 877.801H492.721Z" fill="white" stroke="#222222" stroke-width="4.94421" stroke-linecap="round" stroke-linejoin="round"/>
<path d="M543.962 507.016H377.589C389.115 488.352 409.485 476.986 431.419 476.986H490.125C512.059 476.986 532.435 488.352 543.955 507.016H543.962Z" fill="white" stroke="#222222" stroke-width="4.94421" stroke-linecap="round" stroke-linejoin="round"/>
<path d="M518.814 772.07C501.169 772.07 486.868 786.371 486.868 804.016V873.989C486.868 887.258 479.99 899.581 468.686 906.54L428.823 931.101H492.715L532.578 906.54C543.875 899.581 550.76 887.258 550.76 873.989V804.016C550.76 786.371 536.459 772.07 518.814 772.07Z" fill="white" stroke="#222222" stroke-width="4.94421" stroke-linecap="round" stroke-linejoin="round"/>
<path d="M377.589 825.454V780.604H366.539C355.352 780.604 346.286 794.373 346.286 811.356C346.286 828.34 355.352 842.109 366.539 842.109H382.132C379.184 837.097 377.583 831.356 377.583 825.46L377.589 825.454Z" fill="white" stroke="#222222" stroke-width="4.94421" stroke-linecap="round" stroke-linejoin="round"/>
<path d="M460.775 911.411L452.859 906.535C442.655 900.244 436.054 889.583 434.874 877.797H428.836C419.8 877.797 411.16 874.07 404.955 867.495L386.538 847.971C380.791 841.877 377.589 833.818 377.589 825.444V784.314C373.337 789.741 370.791 796.57 370.791 804.005V873.978C370.791 887.247 377.67 899.57 388.973 906.529L428.836 931.089L460.782 911.405L460.775 911.411Z" fill="white" stroke="#222222" stroke-width="4.94421" stroke-linecap="round" stroke-linejoin="round"/>
<path d="M515.242 780.604C504.056 780.604 494.989 794.373 494.989 811.356C494.989 828.34 504.056 842.109 515.242 842.109H560.16V780.61H515.242V780.604Z" fill="white" stroke="#222222" stroke-width="4.94421" stroke-linecap="round" stroke-linejoin="round"/>
<path d="M560.16 842.109C571.345 842.109 580.413 828.341 580.413 811.356C580.413 794.372 571.345 780.604 560.16 780.604C548.975 780.604 539.907 794.372 539.907 811.356C539.907 828.341 548.975 842.109 560.16 842.109Z" fill="white" stroke="#222222" stroke-width="4.94421" stroke-linecap="round" stroke-linejoin="round"/>
<path d="M561.538 825.563C565.945 825.563 569.517 819.202 569.517 811.355C569.517 803.508 565.945 797.146 561.538 797.146C557.132 797.146 553.559 803.508 553.559 811.355C553.559 819.202 557.132 825.563 561.538 825.563Z" fill="white" stroke="#222222" stroke-width="4.94421" stroke-linecap="round" stroke-linejoin="round"/>
<path d="M726.069 208.778C817.524 138.397 1024.16 158.941 1103.63 257.2L1156.12 503.41C1158.36 539.583 1167.32 570.039 1182.23 595.242C1182.23 595.242 1288.57 574.118 1296.56 525.38C1304.54 476.643 1269.84 437.547 1269.84 437.547C1269.84 437.547 1269.96 59.4199 1018.56 29.5445C767.168 -0.330854 726.069 208.772 726.069 208.772V208.778Z" fill="#222222" stroke="#222222" stroke-width="4.94421" stroke-linecap="round" stroke-linejoin="round"/>
<path d="M721.279 212.558C812.735 142.177 1019.37 162.72 1098.84 260.98" stroke="white" stroke-width="4.94421" stroke-linecap="round" stroke-linejoin="round"/>
<path d="M1108.64 357.626C1108.64 291.392 1136.43 235.232 1174.9 215.659C1184.66 210.121 1199.19 208.236 1204.94 208.236C1204.94 208.236 1150.15 208.236 1144.87 208.236C1091.69 208.236 1048.57 275.119 1048.57 357.626C1048.57 440.132 1091.69 507.015 1144.87 507.015C1151.17 507.015 1204.94 507.015 1204.94 507.015C1193.41 507.015 1182.82 503.35 1174.9 499.592C1136.43 480.013 1108.64 423.859 1108.64 357.626Z" fill="white" stroke="#222222" stroke-width="4.94421" stroke-linecap="round" stroke-linejoin="round"/>
<path d="M1204.94 507.015C1258.13 507.015 1301.24 440.131 1301.24 357.626C1301.24 275.12 1258.13 208.236 1204.94 208.236C1151.75 208.236 1108.64 275.12 1108.64 357.626C1108.64 440.131 1151.75 507.015 1204.94 507.015Z" fill="white" stroke="#222222" stroke-width="4.94421" stroke-linecap="round" stroke-linejoin="round"/>
<path d="M1268.27 255.845V192.436H1224.12V255.684C1200.06 271.036 1182.93 310.886 1182.93 357.634C1182.93 417.669 1211.19 466.332 1246.07 466.332C1280.94 466.332 1309.21 417.663 1309.21 357.634C1309.21 311.053 1292.19 271.32 1268.27 255.851V255.845Z" fill="white" stroke="#222222" stroke-width="4.94421" stroke-linecap="round" stroke-linejoin="round"/>
<path d="M1182.93 357.626C1182.93 310.879 1200.08 271.034 1224.12 255.676V192.428H1189.92V255.676C1165.86 271.028 1148.72 310.879 1148.72 357.626C1148.72 417.661 1176.99 466.324 1211.87 466.324C1214.82 466.324 1246.08 466.324 1246.08 466.324C1238.7 466.324 1233.07 464.235 1228.98 462.289C1202.41 449.452 1182.93 407.457 1182.93 357.626Z" fill="white" stroke="#222222" stroke-width="4.94421" stroke-linecap="round" stroke-linejoin="round"/>
<path d="M1189.92 192.435C1189.92 129.927 1025.01 -21.7732 843.482 53.5394C1053.76 -57.458 1224.12 104.075 1224.12 192.435H1189.92Z" fill="white" stroke="#222222" stroke-width="4.94421" stroke-linecap="round" stroke-linejoin="round"/>
<path d="M1224.12 192.434C1224.12 115.564 1070.05 -60.5924 843.482 53.5385C1051.99 -81.6052 1268.28 78.9393 1268.28 192.434H1224.12Z" fill="white" stroke="#222222" stroke-width="4.94421" stroke-linecap="round" stroke-linejoin="round"/>
<path d="M882.263 129.938C860.632 121.663 832.382 126.959 820.757 148.658C811.752 172.971 764.918 211.24 739.956 215.937C741.007 209.682 740.939 186.778 741.736 182.458C727.435 184.906 702.776 189.658 693.932 186.395C652.926 91.905 761.803 -8.36351 903.541 82.5604C901.737 99.1668 893.795 114.834 882.263 129.938Z" fill="#222222" stroke="white" stroke-width="3.09013" stroke-linecap="round" stroke-linejoin="round"/>
<path d="M1251.78 406.749C1263.72 406.749 1273.4 384.757 1273.4 357.629C1273.4 330.5 1263.72 308.508 1251.78 308.508C1239.84 308.508 1230.16 330.5 1230.16 357.629C1230.16 384.757 1239.84 406.749 1251.78 406.749Z" fill="white" stroke="#222222" stroke-width="4.94421" stroke-linecap="round" stroke-linejoin="round"/>
<path d="M851.992 56.5943C857.362 55.5498 862.857 55.0863 868.456 55.315C938.324 58.1394 882.263 129.942 882.263 129.942C905.006 127.228 937.279 133.248 951.927 139.249L930.951 175.83" stroke="white" stroke-width="3.09013" stroke-linecap="round" stroke-linejoin="round"/>
<path d="M917.183 152.661C918.878 149.044 918.384 145.238 916.081 144.16C913.779 143.081 910.539 145.138 908.844 148.755C907.15 152.371 907.644 156.177 909.947 157.256C912.249 158.335 915.489 156.277 917.183 152.661Z" stroke="white" stroke-width="3.09013" stroke-linecap="round" stroke-linejoin="round"/>
<path d="M883.67 150.61C885.364 146.994 884.87 143.188 882.567 142.109C880.265 141.03 877.025 143.087 875.331 146.704C873.636 150.32 874.13 154.126 876.433 155.205C878.735 156.284 881.975 154.227 883.67 150.61Z" stroke="white" stroke-width="3.09013" stroke-linecap="round" stroke-linejoin="round"/>
<path d="M848.831 151.778C850.525 148.162 850.032 144.356 847.729 143.277C845.426 142.198 842.186 144.255 840.492 147.872C838.798 151.488 839.291 155.294 841.594 156.373C843.897 157.452 847.137 155.395 848.831 151.778Z" stroke="white" stroke-width="3.09013" stroke-linecap="round" stroke-linejoin="round"/>
<path d="M797.395 76.6229C758.54 75.0408 724.19 113.896 726.069 152.257" stroke="white" stroke-width="3.09013" stroke-linecap="round" stroke-linejoin="round"/>
<path d="M786.061 97.5859C760.172 112.017 749.554 134.408 753.447 160.693" stroke="white" stroke-width="3.09013" stroke-linecap="round" stroke-linejoin="round"/>
<path d="M371.501 1104.25L393.862 1141.84" stroke="#222222" stroke-width="4.94421" stroke-linecap="round" stroke-linejoin="round"/>
<path d="M358.844 1132.63L378.473 1168.55" stroke="#222222" stroke-width="4.94421" stroke-linecap="round" stroke-linejoin="round"/>
<path d="M358.844 1189L342.689 1152.74" stroke="#222222" stroke-width="4.94421" stroke-linecap="round" stroke-linejoin="round"/>
<path d="M320.323 1170.63L333.4 1205.38" stroke="#222222" stroke-width="4.94421" stroke-linecap="round" stroke-linejoin="round"/>
<path d="M290.812 1185.35L301.559 1221.9" stroke="#222222" stroke-width="4.94421" stroke-linecap="round" stroke-linejoin="round"/>
<path d="M1077.4 774.117L1089.92 824.134" stroke="#222222" stroke-width="4.94421" stroke-linecap="round" stroke-linejoin="round"/>
<path d="M1114.44 762.92L1127.69 813.691" stroke="#222222" stroke-width="4.94421" stroke-linecap="round" stroke-linejoin="round"/>
<path d="M1148.72 748.732L1164.72 799.126" stroke="#222222" stroke-width="4.94421" stroke-linecap="round" stroke-linejoin="round"/>
<path d="M1178.79 732.584L1199.49 780.605" stroke="#222222" stroke-width="4.94421" stroke-linecap="round" stroke-linejoin="round"/>
<path d="M1207.19 712.898L1233.5 756.006" stroke="#222222" stroke-width="4.94421" stroke-linecap="round" stroke-linejoin="round"/>
<path d="M1228.79 693.414L1259.39 730.106" stroke="#222222" stroke-width="4.94421" stroke-linecap="round" stroke-linejoin="round"/>
<path d="M1048.57 779.67L1053.12 830.422" stroke="#222222" stroke-width="4.94421" stroke-linecap="round" stroke-linejoin="round"/>
<path d="M1014.71 783.799L1009.64 832.771" stroke="#222222" stroke-width="4.94421" stroke-linecap="round" stroke-linejoin="round"/>
<path d="M982.815 783.373L965.282 827.889" stroke="#222222" stroke-width="4.94421" stroke-linecap="round" stroke-linejoin="round"/>
<path d="M869.667 600.826L883.653 607.952C886.997 609.658 888.424 613.681 886.898 617.111L878.864 635.157C875.946 641.702 867.634 643.736 862.035 639.261L850.879 630.361C848.5 628.464 847.604 625.257 848.661 622.401L854.433 606.79C856.707 600.641 863.833 597.853 869.674 600.832L869.667 600.826Z" fill="#222222" stroke="#222222" stroke-width="4.94421" stroke-linecap="round" stroke-linejoin="round"/>
</g>
<defs>
<clipPath id="clip0_1328_14067">
<rect width="1504.12" height="1764" fill="white" transform="translate(0 0.445312)"/>
</clipPath>
</defs>
</svg>
