<svg width="270" height="18" viewBox="0 0 270 18" fill="none" xmlns="http://www.w3.org/2000/svg">
<path d="M264.299 17.1562C263.548 17.1589 262.805 17.0077 262.112 16.7116C261.42 16.4154 260.792 15.9803 260.266 15.4317C259.736 14.8883 259.316 14.243 259.03 13.5329C258.744 12.8228 258.598 12.0618 258.6 11.2935C258.601 10.5253 258.751 9.76497 259.04 9.05608C259.328 8.34719 259.751 7.70371 260.283 7.16256C261.356 6.07799 262.804 5.47239 264.311 5.47782C265.817 5.48325 267.261 6.09926 268.327 7.19154C269.393 8.28383 269.994 9.76378 270 11.3087C270.006 12.8537 269.415 14.3384 268.358 15.439C267.828 15.99 267.196 16.426 266.499 16.7211C265.801 17.0161 265.053 17.1641 264.299 17.1562Z" fill="#FE490C"/>
<path d="M167.924 9.51126C167.911 9.02389 167.834 8.54058 167.694 8.07459C167.468 7.2404 166.97 6.51072 166.283 6.00709C165.688 5.58254 164.987 5.33984 164.262 5.30712C163.894 5.27651 163.525 5.28797 163.16 5.34126C162.809 5.38762 162.467 5.48586 162.145 5.63291C161.43 5.96741 160.834 6.51854 160.435 7.21188C160.406 7.26001 160.371 7.30347 160.343 7.34372C160.314 7.33613 160.293 7.33731 160.286 7.32827C160.249 7.28277 160.215 7.23551 160.182 7.18768C159.949 6.82178 159.669 6.48957 159.349 6.19987C158.688 5.65181 157.871 5.33866 157.021 5.30744C156.719 5.28544 156.414 5.29628 156.114 5.3398C155.713 5.39244 155.325 5.52175 154.971 5.72099C154.514 5.97936 154.121 6.34112 153.821 6.77879C153.727 6.9182 153.635 7.05849 153.536 7.20519L153.396 7.18739V5.68133C153.148 5.64429 150.641 5.65011 150.483 5.6851C150.445 6.24361 150.463 16.6237 150.502 16.7932C150.919 16.8267 153.301 16.8127 153.472 16.773V16.5339C153.472 14.6767 153.472 12.8198 153.473 10.9634C153.473 10.7429 153.49 10.5215 153.509 10.3013C153.538 9.91753 153.643 9.544 153.82 9.20416C154.024 8.76669 154.362 8.40886 154.781 8.18413C155.201 7.95941 155.68 7.87985 156.147 7.95735C156.567 7.99673 156.958 8.19311 157.247 8.50914C157.428 8.72029 157.561 8.97116 157.634 9.24264C157.737 9.64309 157.783 10.0566 157.772 10.4705C157.77 12.4971 157.77 14.5242 157.772 16.552V16.7949C157.829 16.7996 157.864 16.8051 157.899 16.8051C158.824 16.8036 159.75 16.8015 160.675 16.799C160.681 16.799 160.687 16.7929 160.692 16.7885C160.697 16.7841 160.701 16.7771 160.713 16.7631V16.5298C160.713 14.5985 160.713 12.6675 160.713 10.7368C160.712 10.3151 160.786 9.8968 160.931 9.50221C161.12 8.94447 161.504 8.47823 162.008 8.19328C162.477 7.93535 163.021 7.85948 163.541 7.97953C163.754 8.01698 163.959 8.09617 164.144 8.21283C164.47 8.42442 164.714 8.74601 164.834 9.1222C164.964 9.55329 165.024 10.0032 165.012 10.4542C165.012 12.4887 165.012 14.5233 165.012 16.5578C165.012 16.6368 165.014 16.7156 165.015 16.7946H167.954V16.5447C167.954 14.6139 167.954 12.683 167.954 10.7517C167.953 10.3387 167.933 9.92511 167.924 9.51126ZM255.708 10.075C255.71 9.60974 255.671 9.14522 255.594 8.68676C255.478 7.90129 255.149 7.16503 254.645 6.5618C254.31 6.17206 253.896 5.86243 253.432 5.65477C253.056 5.48491 252.656 5.37666 252.247 5.33396C251.687 5.26429 251.12 5.28951 250.569 5.40862C250.019 5.53896 249.506 5.80103 249.074 6.17335C248.792 6.39356 248.548 6.6606 248.352 6.96342C248.292 7.06375 248.23 7.16405 248.166 7.26205C248.138 7.29787 248.108 7.33162 248.076 7.36298C248.033 7.31252 247.997 7.27723 247.969 7.23698C247.888 7.12353 247.813 7.00627 247.732 6.89282C247.32 6.29718 246.743 5.84221 246.075 5.58684C245.278 5.29198 244.418 5.22642 243.587 5.39726C242.935 5.54602 242.342 5.89553 241.889 6.39906C241.706 6.60584 241.556 6.84384 241.39 7.06695C241.354 7.11624 241.344 7.19412 241.244 7.20316C241.24 7.13667 241.232 7.07424 241.232 7.01095C241.232 6.61897 241.232 6.227 241.232 5.83502C241.232 5.77903 241.223 5.72303 241.218 5.66499H238.309C238.274 6.02518 238.286 16.6328 238.319 16.7958H241.233V10.8196C241.225 10.3386 241.312 9.861 241.489 9.4156C241.605 9.10754 241.783 8.828 242.011 8.59523C242.239 8.36245 242.513 8.18168 242.814 8.06469C243.209 7.91421 243.638 7.88381 244.049 7.97718C244.313 8.0224 244.564 8.12949 244.781 8.29012C245.122 8.56884 245.355 8.96309 245.439 9.40217C245.512 9.76406 245.543 10.1335 245.533 10.5029C245.533 12.5223 245.533 14.5418 245.533 16.5616C245.533 16.6395 245.508 16.7232 245.555 16.7949H248.473V16.5432C248.473 14.7087 248.473 12.8741 248.475 11.0392C248.473 10.7664 248.487 10.4937 248.517 10.2226C248.568 9.71273 248.755 9.22735 249.06 8.82062C249.398 8.36104 249.896 8.05256 250.45 7.95909C250.693 7.92212 250.939 7.92431 251.181 7.96554C251.557 8.00486 251.91 8.1722 252.182 8.44089C252.4 8.66917 252.556 8.95099 252.637 9.25927C252.738 9.65238 252.784 10.0583 252.773 10.4647C252.773 12.4918 252.773 14.5189 252.773 16.5458V16.8083H254.236C254.482 16.8083 254.727 16.8115 254.973 16.8083C255.22 16.8182 255.467 16.8128 255.713 16.7923V16.5811C255.711 14.4104 255.714 12.2425 255.708 10.075ZM181.282 9.74662C181.065 8.51469 180.462 7.38865 179.566 6.53848C179.163 6.15556 178.69 5.85768 178.175 5.66179C177.595 5.45412 176.983 5.35821 176.369 5.37889C175.732 5.38774 175.106 5.55805 174.549 5.87468C174.212 6.04653 173.91 6.28182 173.658 6.56824C173.518 6.7374 173.374 6.90158 173.226 7.06403C173.187 7.0952 173.145 7.12163 173.1 7.14278V6.87153C173.1 5.49592 173.1 4.12003 173.1 2.74383C173.1 2.66654 173.124 2.58283 173.076 2.5105H170.194C170.16 2.91472 170.174 16.6196 170.209 16.7934H173.101V16.3233C173.101 16.1755 173.099 16.0276 173.101 15.8797C173.093 15.7141 173.1 15.5481 173.123 15.3839C173.199 15.465 173.248 15.5146 173.293 15.5665C173.439 15.7304 173.581 15.8984 173.73 16.0588C174.329 16.6915 175.134 17.0772 175.992 17.1431C176.416 17.1886 176.844 17.1807 177.267 17.1198C177.681 17.0627 178.085 16.9418 178.464 16.7614C179.466 16.2609 180.271 15.424 180.744 14.3897C181.282 13.2388 181.503 11.9594 181.384 10.6892C181.367 10.3734 181.333 10.0587 181.282 9.74662ZM178.221 12.9335C178.029 13.4717 177.677 13.9349 177.216 14.2587C176.971 14.416 176.699 14.5225 176.414 14.5723C175.958 14.6575 175.489 14.6321 175.044 14.4982C174.561 14.3585 174.135 14.0617 173.831 13.6524C173.426 13.1279 173.185 12.4902 173.139 11.8229C173.113 11.5734 173.103 11.3224 173.109 11.0716C173.119 10.3731 173.332 9.69358 173.72 9.11985C173.917 8.82622 174.171 8.57851 174.468 8.39297C174.764 8.20744 175.095 8.08831 175.439 8.0434C175.954 7.95232 176.483 8.02615 176.956 8.25484C177.304 8.42861 177.61 8.68071 177.85 8.99236C178.09 9.30401 178.259 9.66719 178.344 10.0549C178.441 10.4571 178.487 10.8707 178.48 11.2851C178.502 11.8468 178.414 12.4073 178.221 12.9335ZM235.865 5.70262C235.863 5.69558 235.86 5.68908 235.855 5.68393C235.851 5.67875 235.847 5.67398 235.842 5.66965H232.928V7.0474L232.878 7.06841C232.764 6.93804 232.646 6.80972 232.535 6.67643C232.251 6.32048 231.9 6.0267 231.503 5.81256C231.4 5.75919 231.298 5.7035 231.194 5.65363C230.776 5.45131 230.324 5.33337 229.862 5.30627C229.509 5.27443 229.154 5.28852 228.804 5.34824C228.507 5.39924 228.213 5.47148 227.925 5.56438C227.277 5.80203 226.695 6.19642 226.227 6.71407C225.304 7.70627 224.747 8.99702 224.651 10.3646C224.613 10.7466 224.603 11.1311 224.623 11.5146C224.643 12.023 224.706 12.5287 224.81 13.0262C225.075 14.3426 225.799 15.5144 226.847 16.3219C227.47 16.7973 228.21 17.0836 228.983 17.1481C229.415 17.1934 229.851 17.1823 230.28 17.1149C230.85 17.0189 231.392 16.7926 231.865 16.4528C232.19 16.1941 232.485 15.8975 232.743 15.5691C232.789 15.5169 232.811 15.4364 232.925 15.4277C232.931 15.885 232.923 16.3385 232.929 16.7984C232.983 16.8022 233.018 16.8063 233.053 16.8063C233.977 16.8044 234.902 16.802 235.827 16.7993C235.834 16.7982 235.84 16.795 235.845 16.79C235.854 16.7809 235.862 16.7711 235.869 16.7608V5.81345C235.869 5.77641 235.867 5.73966 235.865 5.70262ZM232.834 12.4738C232.68 13.0476 232.362 13.5612 231.922 13.9493C231.592 14.2408 231.187 14.4287 230.756 14.4903C230.578 14.5179 230.398 14.5332 230.218 14.5361C229.757 14.5632 229.299 14.4435 228.907 14.1933C228.514 13.9432 228.207 13.5749 228.026 13.1388C227.833 12.7421 227.712 12.3127 227.668 11.8716C227.648 11.6444 227.631 11.4163 227.614 11.1882C227.61 10.7736 227.662 10.3605 227.767 9.96012C227.864 9.52517 228.067 9.1227 228.358 8.79096C228.649 8.45923 229.017 8.20925 229.429 8.06472C229.84 7.92019 230.281 7.88591 230.709 7.96518C231.138 8.04445 231.539 8.23462 231.875 8.51761C232.393 8.929 232.75 9.51838 232.878 10.1774C233.063 10.9333 233.047 11.7259 232.834 12.4738ZM135.434 9.196C135.378 8.52487 135.183 7.87368 134.862 7.2854C134.551 6.679 134.07 6.18148 133.482 5.85631C133.04 5.62002 132.558 5.47316 132.062 5.42379C131.489 5.34173 130.907 5.36149 130.34 5.48214C129.547 5.66926 128.83 6.10262 128.286 6.72311C128.166 6.86018 128.055 7.00659 127.937 7.14716C127.905 7.17637 127.871 7.20244 127.834 7.22502V4.06412C127.834 3.80514 127.836 3.54588 127.834 3.28719C127.832 3.02849 127.845 2.77388 127.825 2.51548H124.903V16.8719C125.249 16.9098 127.676 16.897 127.833 16.855V16.615C127.833 15.2611 127.833 13.9071 127.833 12.5529C127.833 11.9241 127.826 11.2953 127.84 10.6665C127.847 10.1164 128.013 9.58071 128.316 9.1263C128.628 8.6024 129.13 8.22623 129.712 8.07957C130.071 7.99395 130.444 7.984 130.807 8.05038C131.167 8.09475 131.508 8.24408 131.788 8.48069C132.069 8.71731 132.277 9.0313 132.389 9.38555C132.515 9.78681 132.574 10.2069 132.565 10.6283C132.565 12.6257 132.565 14.6233 132.565 16.6211V16.8771H135.485V16.6488C135.485 14.4958 135.485 12.3429 135.483 10.1899C135.483 9.85949 135.463 9.52644 135.434 9.196ZM200.456 8.66401C200.056 7.75181 199.424 6.96711 198.626 6.39265C197.828 5.8182 196.893 5.47531 195.92 5.40018C195.445 5.35685 194.967 5.36663 194.494 5.42934C193.907 5.50825 193.338 5.68559 192.808 5.95429C191.887 6.43065 191.104 7.14719 190.538 8.03186C189.973 8.91654 189.644 9.93821 189.586 10.9943C189.562 11.5038 189.601 12.0142 189.7 12.5141C189.911 13.6157 190.427 14.6314 191.188 15.4396C192.111 16.4248 193.353 17.0315 194.681 17.146C195.186 17.182 195.692 17.1733 196.195 17.1201C197.049 17.0278 197.871 16.7324 198.594 16.2575C199.317 15.7826 199.922 15.1412 200.361 14.3844C200.592 14.0056 200.771 13.5962 200.894 13.1677H197.745C197.694 13.2423 197.648 13.3167 197.596 13.3879C197.473 13.5795 197.319 13.7481 197.141 13.8863C196.561 14.2964 195.864 14.4977 195.161 14.4588C194.681 14.4474 194.217 14.2862 193.829 13.9968C193.194 13.5067 192.761 12.791 192.614 11.9903C192.613 11.9545 192.614 11.9186 192.62 11.8833H200.971C200.975 11.8249 200.98 11.7902 200.98 11.7541C200.988 11.2594 200.963 10.7647 200.904 10.2736C200.836 9.71671 200.685 9.17381 200.456 8.66401ZM192.747 10.0321C192.867 9.48831 193.166 9.0032 193.593 8.6576C193.749 8.5157 193.919 8.39044 194.1 8.28371C194.399 8.13577 194.722 8.04758 195.053 8.02385C195.463 7.9822 195.876 8.02049 196.272 8.13671C196.608 8.25225 196.912 8.44937 197.157 8.71125C197.516 9.07524 197.768 9.53476 197.886 10.038C197.654 10.0721 192.917 10.0666 192.746 10.0321H192.747ZM222.152 7.71355C221.897 7.36421 221.609 7.04179 221.292 6.75109C220.691 6.18085 219.96 5.77503 219.165 5.57107C218.597 5.431 218.014 5.36678 217.43 5.38003C216.954 5.38097 216.48 5.43973 216.017 5.55505C215.221 5.75169 214.485 6.14633 213.873 6.70413C213.165 7.31865 212.603 8.0897 212.229 8.95918C211.957 9.62811 211.809 10.3427 211.792 11.0669C211.781 11.5322 211.82 11.9974 211.91 12.4537C212.158 13.7792 212.854 14.9727 213.875 15.8244C214.896 16.676 216.178 17.1313 217.494 17.1102C217.717 17.1102 217.94 17.0886 218.163 17.0737C218.508 17.0473 218.85 16.9896 219.185 16.9014C219.895 16.7267 220.563 16.4068 221.15 15.9608C221.502 15.7025 221.819 15.3962 222.091 15.0503C222.388 14.6408 222.644 14.2019 222.856 13.7402C222.944 13.5579 223.018 13.368 223.104 13.1686L219.952 13.1686C219.927 13.2079 219.908 13.2394 219.887 13.2692C219.714 13.5611 219.482 13.8117 219.207 14.0042C218.932 14.1967 218.62 14.3267 218.292 14.3853C217.876 14.4814 217.446 14.4937 217.025 14.4215C216.466 14.3211 215.958 14.0238 215.589 13.5809C215.219 13.1837 214.961 12.6909 214.842 12.1551C214.816 12.068 214.813 11.9753 214.834 11.8867L223.166 11.8867C223.174 11.8629 223.181 11.8384 223.186 11.8136C223.211 11.1637 223.167 10.513 223.057 9.87262C222.914 9.09335 222.604 8.35612 222.151 7.71355H222.152ZM220.081 10.0421C220.077 10.0474 220.07 10.0509 220.063 10.0523C218.417 10.0552 216.77 10.0576 215.123 10.0596H214.93C215.291 9.01604 215.916 8.30502 216.965 8.07345C217.339 7.9849 217.728 7.98299 218.102 8.06786C218.477 8.15272 218.828 8.32219 219.131 8.56397C219.485 8.80893 219.768 9.14755 219.95 9.54394C220.015 9.69822 220.059 9.86211 220.109 10.0126C220.1 10.023 220.091 10.0328 220.081 10.0421H220.081ZM145.311 5.68628V11.5913C145.302 11.9303 145.272 12.2685 145.223 12.6039C145.136 13.0639 144.914 13.4855 144.586 13.8118C144.258 14.1381 143.84 14.3533 143.389 14.4285C142.822 14.5277 142.24 14.4227 141.741 14.1313C141.475 13.9804 141.243 13.7736 141.06 13.5246C140.877 13.2755 140.748 12.9897 140.68 12.6859C140.621 12.3298 140.587 11.9699 140.579 11.6088V5.68628H137.638L137.637 11.5869C137.653 12.0435 137.694 12.4988 137.76 12.9507C137.921 13.8338 138.307 14.6576 138.878 15.339C139.321 15.8685 139.863 16.3016 140.472 16.6128C141.08 16.9239 141.744 17.1069 142.423 17.1507C142.84 17.1889 143.261 17.1801 143.677 17.1245C144.242 17.0547 144.793 16.8929 145.309 16.6453C146.109 16.2569 146.8 15.6689 147.321 14.9354C147.951 14.0799 148.297 13.0394 148.307 11.9672C148.318 10.0441 148.307 5.68628 148.307 5.68628H145.311ZM209.617 14.2608H207.449C207.204 14.2608 206.958 14.2634 206.712 14.2608C206.476 14.2573 206.239 14.2759 206.007 14.2485C205.972 14.0062 205.979 8.48145 206.015 8.29888C206.088 8.29625 206.166 8.29101 206.243 8.29101C207.507 8.29101 208.772 8.29101 210.037 8.29101C210.113 8.29101 210.19 8.28547 210.27 8.28197V5.65712H205.982V3.26152H202.995C202.992 3.3353 202.987 3.40004 202.987 3.46566C202.987 7.03797 202.987 10.6105 202.988 14.1832C202.987 14.3675 203.003 14.5516 203.035 14.733C203.138 15.3136 203.441 15.8372 203.888 16.209C204.348 16.611 204.937 16.8258 205.541 16.8124C207.088 16.799 208.634 16.808 210.181 16.808H210.344C210.382 16.4581 210.37 14.4235 210.331 14.2616L209.617 14.2608ZM188.229 14.2608H187.253C187.094 14.2608 186.935 14.2649 186.776 14.2608C186.614 14.2734 186.451 14.2654 186.291 14.2369V2.51548H183.354V2.6476C183.354 6.50787 183.354 10.3684 183.354 14.2293C183.349 14.619 183.433 15.0046 183.599 15.3552C183.765 15.7058 184.009 16.0118 184.311 16.2486C184.735 16.6138 185.272 16.812 185.826 16.8074C186.743 16.801 187.661 16.8075 188.578 16.8054C188.625 16.8027 188.672 16.797 188.718 16.7882C188.746 16.284 188.735 14.4445 188.699 14.2599L188.229 14.2608Z" fill="white"/>
<path d="M46.4678 10.7343L41.9448 8.00445C41.8328 7.93649 41.7051 7.90063 41.575 7.90063C41.4449 7.90063 41.3171 7.93649 41.2051 8.00445C41.0925 8.07287 40.9995 8.1703 40.935 8.28706C40.87 8.40496 40.8359 8.5381 40.8359 8.67351V14.1329C40.8358 14.2682 40.87 14.4012 40.935 14.519C40.9993 14.6359 41.0924 14.7334 41.2051 14.8016C41.3171 14.8695 41.4449 14.9053 41.575 14.9053C41.7051 14.9053 41.8328 14.8695 41.9448 14.8016L46.4678 12.0718C46.5805 12.0035 46.6737 11.906 46.7381 11.7892C46.8029 11.6713 46.8369 11.5382 46.8369 11.4029C46.8369 11.2676 46.8029 11.1345 46.7381 11.0166C46.6738 10.8997 46.5805 10.8023 46.4678 10.734V10.7343Z" fill="#FE490C"/>
<path d="M0.00028387 15.5416C-0.00355551 15.7414 0.0315877 15.9399 0.103487 16.1256C0.175386 16.3113 0.28265 16.4804 0.419069 16.623C0.555489 16.7657 0.718206 16.879 0.89786 16.9563C1.07751 17.0337 1.27041 17.0736 1.46527 17.0736C1.66012 17.0736 1.85302 17.0337 2.03268 16.9563C2.21233 16.879 2.37519 16.7657 2.51161 16.623C2.64803 16.4804 2.75529 16.3113 2.82719 16.1256C2.89909 15.9399 2.93423 15.7414 2.93039 15.5416L2.93039 2.46029C2.93423 2.26056 2.89909 2.06207 2.82719 1.87639C2.75529 1.69071 2.64803 1.52161 2.51161 1.37896C2.37519 1.23631 2.21233 1.12298 2.03268 1.04562C1.85302 0.968264 1.66012 0.928421 1.46527 0.928421C1.27041 0.928421 1.07751 0.968264 0.89786 1.04562C0.718206 1.12298 0.555489 1.23631 0.419069 1.37896C0.28265 1.52161 0.175386 1.69071 0.103487 1.87639C0.0315877 2.06207 -0.00355551 2.26056 0.00028387 2.46029L0.00028387 15.5416Z" fill="white"/>
<path d="M5.53633 1.79797C5.54401 2.2723 5.73127 2.725 6.05846 3.06045C6.38564 3.39589 6.82716 3.58784 7.28981 3.59572C7.52011 3.59583 7.74819 3.54942 7.96098 3.45911C8.17377 3.36881 8.36721 3.23638 8.53005 3.06942C8.6929 2.90246 8.82201 2.70425 8.91009 2.48608C8.99817 2.26792 9.0434 2.03409 9.04329 1.79797C9.0473 1.56076 9.0047 1.32517 8.918 1.1052C8.8313 0.885234 8.7023 0.685424 8.53867 0.517665C8.37504 0.349905 8.18011 0.217642 7.96556 0.128751C7.75101 0.0398614 7.52118 -0.00384231 7.28981 0.000264822C6.82716 0.00814501 6.38564 0.200055 6.05846 0.535501C5.73127 0.870947 5.54401 1.32365 5.53633 1.79797ZM5.83621 15.5417C5.83371 15.9399 5.98529 16.3229 6.25778 16.6067C6.53027 16.8905 6.9014 17.0519 7.28981 17.0556C7.68062 17.0529 8.05466 16.8925 8.33101 16.6091C8.60736 16.3258 8.76378 15.9423 8.76646 15.5417V6.8129C8.7703 6.61317 8.7353 6.41464 8.6634 6.22896C8.5915 6.04329 8.48424 5.87418 8.34782 5.73154C8.2114 5.58889 8.04854 5.47556 7.86889 5.3982C7.68923 5.32084 7.49633 5.281 7.30148 5.281C7.10662 5.281 6.91372 5.32084 6.73407 5.3982C6.55442 5.47556 6.3917 5.58889 6.25528 5.73154C6.11886 5.87418 6.01146 6.04329 5.93956 6.22896C5.86766 6.41464 5.83265 6.61317 5.83649 6.8129L5.83621 15.5417Z" fill="white"/>
<path d="M22.9776 11.1891C22.9776 7.52247 20.901 5.18108 18.0401 5.18108C17.3727 5.17145 16.7126 5.32522 16.1147 5.62955C15.5168 5.93389 14.9984 6.38003 14.6024 6.93098V2.46C14.6062 2.26027 14.5712 2.06174 14.4993 1.87606C14.4274 1.69039 14.3201 1.52128 14.1837 1.37864C14.0473 1.23599 13.8844 1.12269 13.7048 1.04533C13.5251 0.967976 13.3322 0.928133 13.1374 0.928133C12.9425 0.928133 12.7496 0.967976 12.57 1.04533C12.3903 1.12269 12.2275 1.23599 12.091 1.37864C11.9546 1.52128 11.8473 1.69039 11.7754 1.87606C11.7035 2.06174 11.6685 2.26027 11.6724 2.46V15.5414C11.6709 15.9398 11.8228 16.3228 12.0949 16.6073C12.3671 16.8918 12.7376 17.0548 13.1263 17.061C13.5149 17.0672 13.8902 16.9162 14.1709 16.6405C14.4516 16.3649 14.615 15.9869 14.6257 15.5886V15.4705C15.0331 15.9993 15.5517 16.4271 16.1428 16.7219C16.7338 17.0168 17.382 17.1713 18.0393 17.1737C20.878 17.174 22.9776 14.9502 22.9776 11.1891ZM19.9552 11.1891C19.9552 13.1761 18.8016 14.5008 17.117 14.5008C16.6316 14.4932 16.1539 14.3746 15.7188 14.1537C15.2838 13.9327 14.9024 13.615 14.6024 13.2236V9.17844C14.8962 8.77674 15.2753 8.44878 15.7109 8.2193C16.1466 7.98981 16.6274 7.86482 17.117 7.85377C18.8016 7.85261 19.9552 9.20208 19.9552 11.1891Z" fill="white"/>
<path d="M24.4759 11.1655C24.4759 14.5008 26.7603 17.1735 30.3596 17.1735C33.9821 17.1735 36.2664 14.5002 36.2664 11.1655C36.2664 7.87743 33.9821 5.18084 30.3596 5.18084C26.7603 5.18084 24.4759 7.87743 24.4759 11.1655ZM33.2206 11.1655C33.2206 13.058 32.1131 14.5008 30.3596 14.5008C28.6062 14.5008 27.5218 13.058 27.5218 11.1655C27.5218 9.2966 28.6059 7.85381 30.3596 7.85381C32.1134 7.85381 33.2206 9.2966 33.2206 11.1655Z" fill="white"/>
<path d="M51.1753 15.5416C51.1715 15.7414 51.2066 15.9399 51.2785 16.1256C51.3504 16.3113 51.4577 16.4804 51.5941 16.623C51.7305 16.7657 51.8934 16.879 52.073 16.9563C52.2527 17.0337 52.4456 17.0736 52.6404 17.0736C52.8353 17.0736 53.0282 17.0337 53.2079 16.9563C53.3875 16.879 53.5502 16.7657 53.6866 16.623C53.8231 16.4804 53.9303 16.3113 54.0022 16.1256C54.0741 15.9399 54.1093 15.7414 54.1054 15.5416V2.46029C54.1093 2.26056 54.0741 2.06207 54.0022 1.87639C53.9303 1.69071 53.8231 1.52161 53.6866 1.37896C53.5502 1.23631 53.3875 1.12298 53.2079 1.04562C53.0282 0.968264 52.8353 0.928421 52.6404 0.928421C52.4456 0.928421 52.2527 0.968264 52.073 1.04562C51.8934 1.12298 51.7305 1.23631 51.5941 1.37896C51.4577 1.52161 51.3504 1.69071 51.2785 1.87639C51.2066 2.06207 51.1715 2.26056 51.1753 2.46029V15.5416Z" fill="white"/>
<path d="M56.711 1.79797C56.7187 2.27235 56.9061 2.7251 57.2333 3.06055C57.5606 3.39601 58.0021 3.58791 58.4648 3.59572C58.6951 3.59583 58.9232 3.54942 59.136 3.45911C59.3488 3.36881 59.5422 3.23638 59.7051 3.06942C59.8679 2.90246 59.997 2.70425 60.0851 2.48608C60.1732 2.26792 60.2184 2.03409 60.2183 1.79797C60.2223 1.56076 60.1797 1.32517 60.093 1.1052C60.0063 0.885234 59.8773 0.685424 59.7137 0.517665C59.55 0.349905 59.3551 0.217642 59.1406 0.128751C58.926 0.0398614 58.6962 -0.00384231 58.4648 0.000264822C58.0021 0.00807013 57.5606 0.199976 57.2333 0.53543C56.9061 0.870884 56.7187 1.3236 56.711 1.79797ZM57.0112 15.5417C57.0087 15.9399 57.1603 16.3229 57.4328 16.6067C57.7053 16.8905 58.0764 17.0519 58.4648 17.0556C58.8556 17.0528 59.2297 16.8924 59.506 16.6091C59.7823 16.3258 59.9388 15.9423 59.9416 15.5417V6.8129C59.9454 6.61317 59.9103 6.41464 59.8384 6.22896C59.7665 6.04329 59.6592 5.87418 59.5228 5.73154C59.3864 5.58889 59.2235 5.47556 59.0439 5.3982C58.8642 5.32084 58.6713 5.281 58.4765 5.281C58.2816 5.281 58.0887 5.32084 57.9091 5.3982C57.7294 5.47556 57.5667 5.58889 57.4303 5.73154C57.2939 5.87418 57.1864 6.04329 57.1145 6.22896C57.0426 6.41464 57.0076 6.61317 57.0115 6.8129L57.0112 15.5417Z" fill="white"/>
<path d="M74.1527 11.1891C74.1527 7.5225 72.0761 5.18111 69.2152 5.18111C68.5477 5.17149 67.8875 5.32525 67.2896 5.62959C66.6917 5.93393 66.1732 6.38006 65.7771 6.93101V2.46004C65.7771 2.06169 65.6228 1.67965 65.348 1.39797C65.0733 1.11629 64.7007 0.958038 64.3121 0.958038C63.9236 0.958038 63.5509 1.11629 63.2762 1.39797C63.0015 1.67965 62.8471 2.06169 62.8471 2.46004V15.5414C62.8482 15.9382 63.0011 16.3187 63.273 16.6011C63.5449 16.8835 63.914 17.0452 64.301 17.0514C64.688 17.0576 65.0618 16.9078 65.3422 16.6342C65.6226 16.3607 65.787 15.9852 65.8002 15.5886V15.4705C66.2076 15.9993 66.7262 16.427 67.3172 16.7219C67.9083 17.0168 68.5565 17.1713 69.2138 17.1738C72.0531 17.1741 74.1527 14.9502 74.1527 11.1891ZM71.1302 11.1891C71.1302 13.1761 69.9765 14.5008 68.2922 14.5008C67.8067 14.4932 67.329 14.3746 66.8939 14.1537C66.4588 13.9327 66.0772 13.615 65.7771 13.2237V9.17848C66.0711 8.77679 66.4503 8.44884 66.886 8.21937C67.3216 7.98989 67.8025 7.86488 68.2922 7.85381C69.9765 7.85264 71.1302 9.20211 71.1302 11.1891Z" fill="white"/>
<path d="M75.651 11.1655C75.651 14.5008 77.9353 17.1735 81.5344 17.1735C85.1571 17.1735 87.4411 14.5002 87.4411 11.1655C87.4411 7.87743 85.1571 5.18084 81.5344 5.18084C77.9353 5.18084 75.651 7.87743 75.651 11.1655ZM84.3956 11.1655C84.3956 13.058 83.2881 14.5008 81.5344 14.5008C79.7807 14.5008 78.6965 13.058 78.6965 11.1655C78.6965 9.2966 79.7809 7.85381 81.5344 7.85381C83.2879 7.85381 84.3956 9.2966 84.3956 11.1655Z" fill="white"/>
<path d="M105.457 13.4691C105.391 14.9805 105.433 16.4947 105.582 17.9998L106.718 17.8479C106.577 16.4007 106.539 14.945 106.602 13.4921C106.618 12.6631 106.635 11.8074 106.615 10.9902C107.645 10.9818 108.755 10.9681 109.987 10.9486C110.37 10.9525 110.752 10.9783 111.133 11.0259C111.929 11.1087 112.831 11.1994 113.608 10.9921L113.32 9.85698C112.741 10.0113 111.982 9.93426 111.246 9.85901C110.823 9.80802 110.397 9.78017 109.97 9.77559C108.73 9.79526 107.614 9.80915 106.579 9.81757C106.53 8.1351 106.501 6.41799 106.611 4.74322C106.616 4.67031 106.645 4.45071 106.673 4.25676C106.825 3.16104 106.842 2.92508 106.7 2.68359L105.669 2.74864C105.669 2.8653 105.662 2.96359 105.653 3.09017C105.644 3.21674 105.578 3.80878 105.539 4.09168C105.5 4.37458 105.475 4.55366 105.468 4.6639C105.355 6.38266 105.384 8.12275 105.433 9.82482C104.518 9.82886 103.658 9.82822 102.82 9.82316C102.345 9.83046 101.87 9.86239 101.398 9.91882C100.571 10.0011 99.634 10.0938 99.0529 9.92231L98.7363 11.0492C99.1241 11.1532 99.524 11.2015 99.9248 11.1927C100.432 11.1927 100.969 11.1396 101.495 11.0875L101.507 11.0863C101.987 11.0387 102.436 10.9994 102.813 10.9959C103.664 11.001 104.537 11.0016 105.469 10.9975C105.49 11.7913 105.474 12.6075 105.457 13.4691Z" fill="white"/>
</svg>
