<svg width="396" height="283" viewBox="0 0 396 283" fill="none" xmlns="http://www.w3.org/2000/svg">
<path d="M66 -96.2004C67.2938 -72.5057 78.5137 -32.4429 78.9459 8.48279C79.378 49.4085 79.8075 79.1328 78.9459 96.7953C78.0816 114.458 89.1863 132.285 92.6225 164.972C94.0865 178.895 96.4436 171.158 97.232 177.538C100.964 207.79 101.936 245.701 122.959 244.99C148.418 244.13 181.643 220.435 178.624 160.555C175.604 100.675 172.152 99.8126 171.72 87.7509C171.288 75.6891 176.419 33.9006 178.815 16.6695C181.211 -0.561523 198.903 -5.73084 214.439 -34.5948C229.973 -63.4588 241.192 -66.0421 255 -113" fill="white"/>
<path d="M66 -96.2004C67.2938 -72.5057 78.5137 -32.4429 78.9459 8.48279C79.378 49.4085 79.8075 79.1328 78.9459 96.7953C78.0816 114.458 89.1863 132.285 92.6225 164.972C94.0865 178.895 96.4436 171.158 97.232 177.538C100.964 207.79 101.936 245.701 122.959 244.99C148.418 244.13 181.643 220.435 178.624 160.555C175.604 100.675 172.152 99.8126 171.72 87.7509C171.288 75.6891 176.419 33.9006 178.815 16.6695C181.211 -0.561522 198.903 -5.73084 214.439 -34.5948C229.973 -63.4588 241.192 -66.0421 255 -113" stroke="#222222" stroke-width="7.84003" stroke-miterlimit="10" stroke-linecap="round" stroke-linejoin="round"/>
<path d="M89.9747 86.5166C103.219 80.6048 115.804 81.3029 121.715 83.6744" stroke="#222222" stroke-width="7.84003" stroke-miterlimit="10" stroke-linecap="round" stroke-linejoin="round"/>
<path d="M79.6819 107.385C89.6106 101.261 98.3032 100.022 104.327 99.666" stroke="#222222" stroke-width="7.84003" stroke-miterlimit="10" stroke-linecap="round" stroke-linejoin="round"/>
<path d="M95.7915 174.141C112.056 163.845 138.542 173.809 141.486 184.106C144.43 194.403 144.43 223.803 144.43 223.803" stroke="#222222" stroke-width="7.84003" stroke-miterlimit="10" stroke-linecap="round" stroke-linejoin="round"/>
</svg>
