<svg viewBox="0 0 362 44" fill="none" preserveAspectRatio="none" xmlns='http://www.w3.org/2000/svg'>
  <path d='M 179 23 H 156.125 C 146.5 23 142.5 39 133.25 39 C 124 39 124.25 11 110.375 11 C 96.5 11 102.5 39 87.5 39 C 72.5 39 76.25 11 64.625 11 C 53 11 58 39 41.75 39 C 25.5 39 31.75 11 18.875 11 C 6 11 14 23 -1 23' stroke='#fff' stroke-width='6'>
    <animate attributeName='d' values='M 179 23 H 156.125 C 146.5 23 142.5 39 133.25 39 C 124 39 124.25 11 110.375 11 C 96.5 11 102.5 39 87.5 39 C 72.5 39 76.25 11 64.625 11 C 53 11 58 39 41.75 39 C 25.5 39 31.75 11 18.875 11 C 6 11 14 23 -1 23; M 179 23 H 156.125 C 146.5 23 142 23 136 23 C 128 23 124 23 111 23 C 97 23 102 23 89 23 C 73 23 76 23 65 23 C 53 23 58 23 42 23 C 25 23 32 23 19 23 C 6 23 14 23 -3 23' keyTimes='0; 1' keySplines='0.42 0 1 1; 0.42 0 1 1;' fill='freeze' dur='2s'></animate>
  </path>
  <g stroke="#222">
    <path d="M355.35 16.11L344.81 16.99C344.15 15.49 343.21 14.55 342.17 14.55H316.89C315.46 7.18 312.05 2 308.08 2H224.69C221.76 2 219.14 4.82 217.39 9.26H176.12C172.74 9.26 170 15.1 170 22.3C170 29.5 172.74 35.34 176.12 35.34H217.39C219.14 39.78 221.76 42.6 224.69 42.6H308.08C312.06 42.6 315.46 37.41 316.89 30.05H342.17C343.21 30.05 344.15 29.11 344.81 27.61L355.35 28.49L360.16 25.26V19.33L355.35 16.1V16.11Z" fill="white" />
    <path d="M342.46 17.19C341.55 17.19 340.82 19.48 340.82 22.31C340.82 25.14 341.55 27.43 342.46 27.43L355.35 28.51V16.12L342.46 17.2V17.19Z" />
    <path d="M327.32 14.55H309.69C307.68 14.55 306.05 18.02 306.05 22.3C306.05 26.58 307.68 30.05 309.69 30.05H327.32" />
    <path d="M316.89 30.06C315.46 37.43 312.05 42.61 308.08 42.61C302.82 42.61 298.55 33.52 298.55 22.3C298.55 11.08 302.82 1.98999 308.08 1.98999C312.03 1.98999 315.42 7.09999 316.86 14.39" />
    <path d="M333.201 30.0601C331.191 30.0601 329.561 26.5901 329.561 22.3101C329.561 18.0301 331.191 14.5601 333.201 14.5601" />
    <path d="M224.69 42.61C219.43 42.61 215.16 33.52 215.16 22.3C215.16 11.08 219.43 1.98999 224.69 1.98999" />
    <path d="M328.491 30.0601C326.481 30.0601 324.851 26.5901 324.851 22.3101C324.851 18.0301 326.481 14.5601 328.491 14.5601" />
    <path d="M344.82 27.6201C344.16 29.1201 343.22 30.0601 342.17 30.0601C340.16 30.0601 338.53 26.5901 338.53 22.3101C338.53 18.0301 340.16 14.5601 342.17 14.5601C343.17 14.5601 344.08 15.4301 344.74 16.8301" />
    <path d="M183.59 35.35C180.21 35.35 177.47 29.51 177.47 22.31C177.47 15.11 180.21 9.27002 183.59 9.27002" />
    <path d="M192.95 35.35C189.57 35.35 186.83 29.51 186.83 22.31C186.83 15.11 189.57 9.27002 192.95 9.27002" />
    <path d="M202.3 35.35C198.92 35.35 196.18 29.51 196.18 22.31C196.18 15.11 198.92 9.27002 202.3 9.27002" />
    <path d="M211.65 35.35C208.27 35.35 205.53 29.51 205.53 22.31C205.53 15.11 208.27 9.27002 211.65 9.27002" />
  </g>
</svg>