<svg viewBox="0 0 362 44" preserveAspectRatio="none" xmlns='http://www.w3.org/2000/svg' fill="white">
  <path fill="none" d='M 145 22 H 167.875 C 177.5 22 181.5 38 190.75 38 C 200 38 199.75 10 213.625 10 C 227.5 10 221.5 38 236.5 38 C 251.5 38 247.75 10 259.375 10 C 271 10 266 38 282.25 38 C 298.5 38 292.25 10 305.125 10 C 318 10 317 22 362 22' stroke='#fff' stroke-width='6'>
    <animate attributeName='d' values='M 145 22 H 167.875 C 177.5 22 181.5 38 190.75 38 C 200 38 199.75 10 213.625 10 C 227.5 10 221.5 38 236.5 38 C 251.5 38 247.75 10 259.375 10 C 271 10 266 38 282.25 38 C 298.5 38 292.25 10 305.125 10 C 318 10 317 22 362 22; M 145 22 H 167.875 C 177.5 22 181 22 190 22 C 198 22 200 22 214 22 C 228 22 222 22 237 22 C 251 22 248 22 259 22 C 271 22 266 22 283 22 C 299 22 293 22 303 22 C 318 22 311 22 362 22' keyTimes='0; 1' keySplines='0.42 0 1 1; 0.42 0 1 1;' fill='freeze' dur='2s'></animate>
  </path>
  <g stroke="#222">
    <path d="M142.5 9.26C144.21 9.26 145.67 12.95 146.19 18.08L146.18 26.54C145.66 31.67 144.2 35.36 142.49 35.36H101.22C99.48 39.8 96.85 42.62 93.92 42.62H10.53C5.27 42.62 1 33.53 1 22.31C1 11.09 5.27 2 10.53 2H93.93C96.86 2 99.48 4.82 101.23 9.26H142.5Z" fill="white"/>
    <path d="M93.9196 42.61C88.6596 42.61 84.3896 33.52 84.3896 22.3C84.3896 11.08 88.6596 1.98999 93.9196 1.98999" />
    <path d="M118.21 9.26001H93.9199" />
    <path d="M93.9199 35.35H118.21" />
    <path d="M93.9195 35.35C91.7595 35.35 90.0195 29.51 90.0195 22.31C90.0195 15.11 91.7695 9.27002 93.9195 9.27002" />
    <path d="M146.19 26.53C145.67 31.66 144.21 35.35 142.5 35.35C140.34 35.35 138.6 29.51 138.6 22.31C138.6 15.11 140.35 9.27002 142.5 9.27002C144.21 9.27002 145.67 12.96 146.19 18.09" />
    <path d="M109.82 35.35C106.83 35.35 104.4 29.51 104.4 22.31C104.4 15.11 106.83 9.27002 109.82 9.27002" />
    <path d="M118.1 35.35C115.11 35.35 112.68 29.51 112.68 22.31C112.68 15.11 115.11 9.27002 118.1 9.27002" />
    <path d="M126.38 35.35C123.39 35.35 120.96 29.51 120.96 22.31C120.96 15.11 123.39 9.27002 126.38 9.27002" />
    <path d="M143 26C142.444 26 142 24.2085 142 22C142 19.7915 142.444 18 143 18" />
    <path d="M146.5 26L143 26" />
    <path d="M143 18H146.5" />
    <path d="M134.66 35.35C131.67 35.35 129.24 29.51 129.24 22.31C129.24 15.11 131.67 9.27002 134.66 9.27002" />
  </g>
</svg>